<?xml version="1.0" encoding="UTF-8"?>
<svg id="Layer_1" data-name="Layer 1" xmlns="http://www.w3.org/2000/svg" xmlns:xlink="http://www.w3.org/1999/xlink" viewBox="0 0 20 20">
  <defs>
    <style>
      .cls-1 {
        fill: #0052fe;
      }

      .cls-1, .cls-2, .cls-3, .cls-4, .cls-5 {
        stroke-width: 0px;
      }

      .cls-2 {
        fill: url(#linear-gradient);
      }

      .cls-3 {
        fill: #fff;
      }

      .cls-4 {
        fill: #fbfbfe;
      }

      .cls-5 {
        fill: #fcfcfe;
      }
    </style>
    <linearGradient id="linear-gradient" x1="4.51" y1="4.84" x2="4.63" y2="10.48" gradientUnits="userSpaceOnUse">
      <stop offset="0" stop-color="#fff"/>
      <stop offset="1" stop-color="#0052fe"/>
    </linearGradient>
  </defs>
  <circle class="cls-1" cx="10" cy="10" r="10"/>
  <g>
    <g>
      <path class="cls-3" d="M8.59,10.08h-2.54v-2.54c1.36.08,2.46,1.17,2.54,2.54Z"/>
      <path class="cls-3" d="M8.6,10.24c0,1.49-1.21,2.7-2.7,2.7s-2.64-1.15-2.7-2.59h0v-3h2.64v.19s.04,0,.06,0v2.7h2.7Z"/>
      <path class="cls-2" d="M3.2,7.35l2.3-2.22c.15-.14.4-.04.4.17v4.93h0c-1.49,0-2.7-1.21-2.7-2.7v-.19Z"/>
    </g>
    <g>
      <path class="cls-4" d="M9.18,10.21c0-.47,0-.94,0-1.41,0-.1.02-.14.13-.14.34,0,.69,0,1.03,0,.59,0,1.06.46,1.08,1.05.02.56-.43,1.06-1.02,1.1-.16.01-.32.02-.48,0-.13,0-.16.04-.16.16,0,.22,0,.44,0,.66,0,.1-.03.13-.12.12-.11,0-.23,0-.34,0-.11,0-.13-.04-.12-.13,0-.47,0-.94,0-1.41ZM9.77,9.73c0,.13,0,.27,0,.4,0,.08.02.11.1.11.16,0,.31,0,.47,0,.28,0,.5-.23.5-.5,0-.28-.21-.49-.5-.5-.15,0-.3,0-.46,0-.1,0-.12.04-.12.13,0,.12,0,.25,0,.37Z"/>
      <path class="cls-5" d="M13.34,9.56c-.02-.13.04-.15.14-.15.11,0,.23,0,.34,0,.07,0,.1.02.1.1,0,.72,0,1.44,0,2.15,0,.07-.03.09-.09.09-.11,0-.23,0-.34,0-.07,0-.14.03-.15-.09,0-.07-.08,0-.11,0-.42.17-.82.13-1.19-.14-.48-.35-.61-1.01-.33-1.52.3-.52.91-.74,1.48-.52.04.02.09.04.16.07ZM12.74,11.18c.33,0,.6-.26.6-.59,0-.33-.28-.61-.61-.61-.33,0-.59.27-.59.6,0,.33.26.59.6.6Z"/>
      <path class="cls-4" d="M15.26,11.75c-.14.04-.18-.04-.22-.14-.27-.69-.55-1.38-.83-2.07-.05-.12-.02-.14.09-.13.16,0,.35-.04.48.03.13.07.14.28.2.43.15.38.3.76.46,1.14.02.04.04.07.07.14.15-.4.3-.77.44-1.15.07-.17.13-.34.2-.51.02-.06.05-.08.11-.08.18,0,.35,0,.55,0-.11.29-.22.57-.32.85-.22.56-.44,1.13-.65,1.69-.18.46-.61.77-1.07.78-.09,0-.14-.02-.12-.12,0-.05,0-.1,0-.14,0-.1-.03-.2.01-.28.04-.08.16-.04.25-.07.17-.06.29-.18.36-.36Z"/>
    </g>
  </g>
</svg>