<svg width="23" height="21" viewBox="0 0 23 21" fill="none" xmlns="http://www.w3.org/2000/svg">
<path d="M19.3777 3.11793H17.2024V2.39283C17.2018 1.81609 16.9724 1.26314 16.5646 0.855323C16.1568 0.447505 15.6039 0.218129 15.0271 0.217529H7.7761C7.19936 0.218129 6.64641 0.447505 6.23859 0.855323C5.83077 1.26314 5.60139 1.81609 5.60079 2.39283V3.11793H3.42549C2.65651 3.11877 1.91927 3.42462 1.37552 3.96837C0.831772 4.51212 0.525925 5.24936 0.525085 6.01834V17.62C0.525085 18.3892 0.830663 19.1269 1.37459 19.6709C1.91853 20.2148 2.65626 20.5204 3.42549 20.5204H19.3777C20.147 20.5204 20.8847 20.2148 21.4286 19.6709C21.9725 19.1269 22.2781 18.3892 22.2781 17.62V6.01834C22.2773 5.24936 21.9714 4.51212 21.4277 3.96837C20.8839 3.42462 20.1467 3.11877 19.3777 3.11793ZM15.0271 12.5442H12.1267V15.4447C12.1267 15.637 12.0503 15.8214 11.9143 15.9574C11.7783 16.0934 11.5939 16.1698 11.4016 16.1698C11.2093 16.1698 11.0249 16.0934 10.8889 15.9574C10.7529 15.8214 10.6765 15.637 10.6765 15.4447V12.5442H7.7761C7.58379 12.5442 7.39936 12.4679 7.26337 12.3319C7.12739 12.1959 7.051 12.0115 7.051 11.8191C7.051 11.6268 7.12739 11.4424 7.26337 11.3064C7.39936 11.1704 7.58379 11.094 7.7761 11.094H10.6765V8.19364C10.6765 8.00133 10.7529 7.8169 10.8889 7.68092C11.0249 7.54494 11.2093 7.46854 11.4016 7.46854C11.5939 7.46854 11.7783 7.54494 11.9143 7.68092C12.0503 7.8169 12.1267 8.00133 12.1267 8.19364V11.094H15.0271C15.2194 11.094 15.4039 11.1704 15.5398 11.3064C15.6758 11.4424 15.7522 11.6268 15.7522 11.8191C15.7522 12.0115 15.6758 12.1959 15.5398 12.3319C15.4039 12.4679 15.2194 12.5442 15.0271 12.5442ZM15.7522 3.11793H7.051V2.39283C7.051 2.20052 7.12739 2.01609 7.26337 1.88011C7.39936 1.74413 7.58379 1.66773 7.7761 1.66773H15.0271C15.2194 1.66773 15.4039 1.74413 15.5398 1.88011C15.6758 2.01609 15.7522 2.20052 15.7522 2.39283V3.11793Z" fill="#0E355D"/>
</svg>
