<svg width="22" height="26" viewBox="0 0 22 26" fill="none" xmlns="http://www.w3.org/2000/svg">
<path d="M7.52604 23.7995C7.52604 23.7995 8.19271 25.1328 10.8594 25.1328C13.526 25.1328 14.1927 23.7995 14.1927 23.7995M18.1927 11.7995V8.46615C18.1927 4.41606 14.9095 1.13281 10.8594 1.13281C6.80929 1.13281 3.52604 4.41606 3.52604 8.46615V11.7995L1.96394 13.3616C1.2567 14.0688 0.859375 15.028 0.859375 16.0282C0.859375 18.111 2.54781 19.7995 4.63061 19.7995H17.0881C19.1709 19.7995 20.8594 18.111 20.8594 16.0282C20.8594 15.028 20.4621 14.0688 19.7548 13.3616L18.1927 11.7995Z" stroke="#FAF9F6" stroke-width="1.5" stroke-linecap="round" stroke-linejoin="round"/>
</svg>
