<svg width="21" height="21" viewBox="0 0 21 21" fill="none" xmlns="http://www.w3.org/2000/svg">
<path d="M19.3167 1.29569C19.1655 1.25974 19.0064 1.27914 18.8683 1.35039L17.8866 1.84067L16.8964 1.3456C16.8077 1.30125 16.7099 1.27817 16.6107 1.27817C16.5116 1.27817 16.4138 1.30125 16.3251 1.3456L15.3225 1.84107L14.3332 1.3456C14.2442 1.30093 14.1461 1.27766 14.0465 1.27766C13.947 1.27766 13.8488 1.30093 13.7599 1.3456L12.7761 1.83948L11.7999 1.3468C11.7112 1.30182 11.6132 1.27818 11.5137 1.27776C11.4143 1.27735 11.3161 1.30017 11.227 1.3444L10.2209 1.84147L9.23071 1.3452C9.14186 1.30087 9.04393 1.2778 8.94464 1.2778C8.84535 1.2778 8.74742 1.30087 8.65858 1.3452L7.66563 1.84067L6.67388 1.3452C6.54603 1.28111 6.40037 1.26178 6.26022 1.2903C6.12008 1.31882 5.99356 1.39354 5.90092 1.5025C5.80108 1.62151 5.74724 1.77238 5.7492 1.92771V11.4987L5.7512 11.5006H13.4149C13.7537 11.5006 14.0787 11.6353 14.3183 11.8749C14.5579 12.1145 14.6925 12.4394 14.6925 12.7783V16.9285C14.6925 18.1634 16.0129 19.1643 17.2477 19.1643H17.7269C18.2775 19.1643 18.8055 18.9456 19.1949 18.5563C19.5842 18.1669 19.803 17.6388 19.803 17.0882V1.91653C19.8031 1.77355 19.7552 1.63467 19.6671 1.52211C19.5789 1.40955 19.4555 1.32983 19.3167 1.29569ZM16.6089 9.58223H11.5184C11.1735 9.58223 10.8756 9.31712 10.8605 8.97217C10.8566 8.88596 10.8702 8.79985 10.9005 8.71906C10.9308 8.63826 10.9772 8.56444 11.0368 8.50205C11.0964 8.43966 11.1681 8.39001 11.2474 8.35607C11.3268 8.32214 11.4122 8.30463 11.4985 8.30461H16.589C16.9339 8.30461 17.2318 8.56972 17.247 8.91467C17.2508 9.00088 17.2372 9.08699 17.2069 9.16778C17.1766 9.24858 17.1302 9.3224 17.0706 9.38479C17.011 9.44718 16.9393 9.49684 16.86 9.53077C16.7806 9.5647 16.6952 9.58221 16.6089 9.58223ZM16.6089 6.38819H8.96321C8.61825 6.38819 8.32041 6.12308 8.30524 5.77813C8.30135 5.69192 8.31498 5.60581 8.34529 5.52502C8.3756 5.44422 8.42196 5.3704 8.48159 5.30801C8.54121 5.24562 8.61286 5.19597 8.6922 5.16203C8.77155 5.1281 8.85695 5.11059 8.94324 5.11057H16.589C16.9339 5.11057 17.2318 5.37568 17.247 5.72063C17.2508 5.80684 17.2372 5.89295 17.2069 5.97374C17.1766 6.05454 17.1302 6.12836 17.0706 6.19075C17.011 6.25314 16.9393 6.3028 16.86 6.33673C16.7806 6.37066 16.6952 6.38817 16.6089 6.38819Z" fill="#0E355D"/>
<path d="M13.415 16.9284V13.4149C13.415 13.2455 13.3477 13.083 13.2279 12.9632C13.1081 12.8434 12.9456 12.7761 12.7762 12.7761H1.91643C1.57756 12.7772 1.2529 12.9124 1.01347 13.1522C0.774047 13.392 0.639335 13.7169 0.638809 14.0557C0.638809 16.074 0.869579 16.9132 1.21613 17.552C1.80423 18.6368 2.86905 19.1642 4.47166 19.1642H14.2806C14.3121 19.1642 14.3429 19.1549 14.3691 19.1375C14.3954 19.12 14.4158 19.0952 14.428 19.0662C14.4402 19.0371 14.4435 19.0051 14.4375 18.9741C14.4315 18.9432 14.4165 18.9147 14.3943 18.8923C14.0166 18.5134 13.415 18.0064 13.415 16.9284Z" fill="#0E355D"/>
</svg>
