<svg width="33" height="33" viewBox="0 0 33 33" fill="none" xmlns="http://www.w3.org/2000/svg">
<path d="M4.1214 13.5376C4.1214 12.1308 5.2618 10.9904 6.66855 10.9904V10.9904C7.63334 10.9904 8.51532 10.4453 8.94679 9.58238L10.0745 7.32696C10.6358 6.20436 11.7832 5.49524 13.0383 5.49524H19.9328C21.1879 5.49524 22.3353 6.20436 22.8966 7.32696L24.0243 9.58238C24.4557 10.4453 25.3377 10.9904 26.3025 10.9904V10.9904C27.7093 10.9904 28.8497 12.1308 28.8497 13.5376V20.4107C28.8497 22.1161 28.8497 22.9689 28.6527 23.6662C28.1583 25.4166 26.7903 26.7846 25.0399 27.279C24.3426 27.4759 23.4899 27.4759 21.7844 27.4759H11.1866C9.48118 27.4759 8.62846 27.4759 7.93113 27.279C6.18072 26.7846 4.81271 25.4166 4.31835 23.6662C4.1214 22.9689 4.1214 22.1161 4.1214 20.4107V13.5376Z" stroke="#12467B" stroke-width="1.4372"/>
<circle cx="16.4855" cy="17.8593" r="4.77657" stroke="#12467B" stroke-width="1.4372"/>
</svg>
