<svg width="20" height="21" viewBox="0 0 20 21" fill="none" xmlns="http://www.w3.org/2000/svg">
<path fill-rule="evenodd" clip-rule="evenodd" d="M2.54001 0.0244751H5.92001C7.33001 0.0244751 8.46001 1.18853 8.46001 2.61678V6.06745C8.46001 7.50481 7.33001 8.65874 5.92001 8.65874H2.54001C1.14001 8.65874 7.7667e-06 7.50481 7.7667e-06 6.06745V2.61678C7.7667e-06 1.18853 1.14001 0.0244751 2.54001 0.0244751ZM2.53999 11.6344H5.91999C7.32999 11.6344 8.45999 12.7893 8.45999 14.2267V17.6774C8.45999 19.1046 7.32999 20.2687 5.91999 20.2687H2.53999C1.13999 20.2687 -1.14441e-05 19.1046 -1.14441e-05 17.6774V14.2267C-1.14441e-05 12.7893 1.13999 11.6344 2.53999 11.6344ZM17.46 0.0245042H14.08C12.67 0.0245042 11.54 1.18856 11.54 2.61681V6.06748C11.54 7.50484 12.67 8.65877 14.08 8.65877H17.46C18.86 8.65877 20 7.50484 20 6.06748V2.61681C20 1.18856 18.86 0.0245042 17.46 0.0245042ZM14.08 11.6344H17.46C18.86 11.6344 20 12.7893 20 14.2267V17.6774C20 19.1046 18.86 20.2687 17.46 20.2687H14.08C12.67 20.2687 11.54 19.1046 11.54 17.6774V14.2267C11.54 12.7893 12.67 11.6344 14.08 11.6344Z" fill="#D5D5E1"/>
</svg>
