<svg width="24" height="24" viewBox="0 0 24 24" fill="none" xmlns="http://www.w3.org/2000/svg">
<path d="M13.0126 22.0969L12.2526 21.548L13.0126 22.0969ZM10.9859 22.0969L10.2259 22.6458L10.9859 22.0969ZM1.26419 6.90455L0.427534 6.48157L1.26419 6.90455ZM1.41748 8.8483L2.1775 8.2994L1.41748 8.8483ZM22.7343 6.90455L21.8977 7.32753V7.32753L22.7343 6.90455ZM22.5811 8.8483L23.3411 9.3972L22.5811 8.8483ZM20.4429 2.37206L21.2796 1.94908V1.94908L20.4429 2.37206ZM3.55562 2.37206L4.39227 2.79504L3.55562 2.37206ZM5.74927 7.875L4.86821 7.55462C4.78618 7.78021 4.79381 8.02867 4.88952 8.24881L5.74927 7.875ZM11.9993 22.25L11.1395 22.6238C11.2883 22.9661 11.626 23.1875 11.9993 23.1875C12.3725 23.1875 12.7102 22.9661 12.859 22.6238L11.9993 22.25ZM18.2493 7.875L19.109 8.24881C19.2047 8.02867 19.2124 7.78021 19.1303 7.55462L18.2493 7.875ZM1.99927 6.9375C1.4815 6.9375 1.06177 7.35723 1.06177 7.875C1.06177 8.39277 1.4815 8.8125 1.99927 8.8125V6.9375ZM21.9993 8.8125C22.517 8.8125 22.9368 8.39277 22.9368 7.875C22.9368 7.35723 22.517 6.9375 21.9993 6.9375V8.8125ZM5.7867 1.9375H18.2118V0.0625H5.7867V1.9375ZM19.6063 2.79504L21.8977 7.32753L23.571 6.48157L21.2796 1.94908L19.6063 2.79504ZM2.10085 7.32753L4.39227 2.79504L2.71896 1.94908L0.427534 6.48157L2.10085 7.32753ZM21.821 8.2994L12.2526 21.548L13.7726 22.6458L23.3411 9.3972L21.821 8.2994ZM11.7459 21.548L2.1775 8.2994L0.657472 9.39719L10.2259 22.6458L11.7459 21.548ZM12.2526 21.548C12.1279 21.7207 11.8707 21.7207 11.7459 21.548L10.2259 22.6458C11.0991 23.8548 12.8995 23.8548 13.7726 22.6458L12.2526 21.548ZM0.427534 6.48157C-0.0468992 7.42001 0.0417999 8.54472 0.657472 9.39719L2.1775 8.2994C1.97227 8.01524 1.94271 7.64034 2.10085 7.32753L0.427534 6.48157ZM21.8977 7.32753C22.0558 7.64034 22.0263 8.01524 21.821 8.2994L23.3411 9.3972C23.9567 8.54472 24.0454 7.42001 23.571 6.48157L21.8977 7.32753ZM18.2118 1.9375C18.8012 1.9375 19.3404 2.26909 19.6063 2.79504L21.2796 1.94908C20.6946 0.792006 19.5084 0.0625 18.2118 0.0625V1.9375ZM5.7867 0.0625C4.49016 0.0625 3.30393 0.792007 2.71896 1.94908L4.39227 2.79504C4.65817 2.26909 5.19737 1.9375 5.7867 1.9375V0.0625ZM7.36821 0.679616L4.86821 7.55462L6.63033 8.19538L9.13033 1.32038L7.36821 0.679616ZM4.88952 8.24881L11.1395 22.6238L12.859 21.8762L6.60902 7.50119L4.88952 8.24881ZM14.8682 1.32038L17.3682 8.19538L19.1303 7.55462L16.6303 0.679616L14.8682 1.32038ZM17.3895 7.50119L11.1395 21.8762L12.859 22.6238L19.109 8.24881L17.3895 7.50119ZM1.99927 8.8125H21.9993V6.9375H1.99927V8.8125Z" fill="#FFC738"/>
</svg>
