<svg width="17" height="15" viewBox="0 0 17 15" fill="none" xmlns="http://www.w3.org/2000/svg">
<path d="M4.81962 3.78054C5.90352 3.06975 7.15946 2.54164 8.49997 2.54164C11.5461 2.54164 14.1556 5.26872 15.302 6.66946C15.4831 6.89723 15.5833 7.19315 15.5833 7.49998C15.5833 7.80681 15.4831 8.10273 15.302 8.3305C14.6701 9.10262 13.5936 10.2777 12.2445 11.177M10.1377 12.2044C9.61102 12.3652 9.06295 12.4583 8.49997 12.4583C5.45379 12.4583 2.84434 9.73124 1.69792 8.3305C1.51685 8.10273 1.41663 7.80681 1.41663 7.49998C1.41663 7.19315 1.51685 6.89723 1.69792 6.66946C2.06114 6.22566 2.57122 5.64872 3.19552 5.06757M10.0408 9.04109C10.892 8.18995 10.892 6.80997 10.0408 5.95883C9.1897 5.10769 7.80973 5.10769 6.95859 5.95883M14.6459 13.6459L2.47916 1.47913" stroke="#333333" stroke-width="1.5" stroke-linecap="round" stroke-linejoin="round"/>
</svg>
