<svg width="17" height="13" viewBox="0 0 17 13" fill="none" xmlns="http://www.w3.org/2000/svg">
<path d="M15.302 5.66945C15.4831 5.89722 15.5833 6.19314 15.5833 6.49997C15.5833 6.8068 15.4831 7.10272 15.302 7.33049C14.1556 8.73123 11.5461 11.4583 8.49997 11.4583C5.45379 11.4583 2.84434 8.73123 1.69792 7.33049C1.51685 7.10272 1.41663 6.8068 1.41663 6.49997C1.41663 6.19314 1.51685 5.89722 1.69792 5.66945C2.84434 4.26871 5.45379 1.54163 8.49997 1.54163C11.5461 1.54163 14.1556 4.26871 15.302 5.66945Z" stroke="#333333" stroke-width="1.5" stroke-linecap="round" stroke-linejoin="round"/>
<path d="M8.50032 8.70355C9.70631 8.70355 10.684 7.71693 10.684 6.49987C10.684 5.28281 9.70631 4.29619 8.50032 4.29619C7.29433 4.29619 6.31668 5.28281 6.31668 6.49987C6.31668 7.71693 7.29433 8.70355 8.50032 8.70355Z" stroke="#333333" stroke-width="1.5" stroke-linecap="round" stroke-linejoin="round"/>
</svg>
