<svg width="26" height="20" viewBox="0 0 26 20" fill="none" xmlns="http://www.w3.org/2000/svg">
<path fill-rule="evenodd" clip-rule="evenodd" d="M19.4749 10.3084C18.3349 10.3084 17.2649 10.5384 16.3649 10.9284C19.5149 11.8384 21.7449 14.0184 21.8049 16.5684C23.4449 16.3584 25.2149 15.7384 25.2149 14.0484C25.2149 12.0184 22.5849 10.3084 19.4749 10.3084Z" fill="#0084FB"/>
<path fill-rule="evenodd" clip-rule="evenodd" d="M19.4449 8.86843H19.4649C21.5949 8.86843 23.3349 7.12843 23.3349 5.00843C23.3349 2.87843 21.5949 1.13843 19.4649 1.13843C19.0449 1.13843 18.6449 1.20843 18.2649 1.32843C18.9549 2.34843 19.3549 3.57843 19.3549 4.90843C19.3649 6.25843 18.9449 7.55843 18.1549 8.63843C18.5649 8.78843 18.9949 8.86843 19.4449 8.86843Z" fill="#0084FB"/>
<path fill-rule="evenodd" clip-rule="evenodd" d="M9.62491 10.9184C8.72491 10.5384 7.65491 10.3084 6.52491 10.3084C3.41491 10.3084 0.784912 12.0184 0.784912 14.0484C0.784912 15.7384 2.54491 16.3484 4.18491 16.5684C4.23491 14.0184 6.46491 11.8384 9.62491 10.9184Z" fill="#0084FB"/>
<path fill-rule="evenodd" clip-rule="evenodd" d="M6.52492 8.86843H6.55492C7.00492 8.86843 7.43492 8.78843 7.84492 8.63843C7.08492 7.59843 6.63492 6.30843 6.63492 4.90843C6.63492 3.57843 7.03492 2.34843 7.72492 1.32843C7.34492 1.20843 6.94492 1.13843 6.52492 1.13843C4.39492 1.13843 2.66492 2.87843 2.66492 5.00843C2.66492 7.12843 4.39492 8.86843 6.52492 8.86843Z" fill="#0084FB"/>
<path fill-rule="evenodd" clip-rule="evenodd" d="M12.9945 11.9454C9.03352 11.9454 5.68652 14.1014 5.68652 16.6534C5.68652 19.9534 11.1865 19.9534 12.9945 19.9534C16.1325 19.9534 20.3045 19.6134 20.3045 16.6744C20.3045 14.1104 16.9565 11.9454 12.9945 11.9454Z" fill="#0084FB"/>
<path fill-rule="evenodd" clip-rule="evenodd" d="M12.9955 9.77451H13.0285C14.3235 9.77051 15.5395 9.26151 16.4515 8.34251C17.3645 7.42351 17.8645 6.20451 17.8595 4.91151C17.8595 2.22851 15.6785 0.0465088 12.9955 0.0465088C10.3135 0.0465088 8.13251 2.22851 8.13251 4.91151C8.13251 7.59251 10.3135 9.77451 12.9955 9.77451Z" fill="#0084FB"/>
</svg>
