<svg width="26" height="23" viewBox="0 0 26 23" fill="none" xmlns="http://www.w3.org/2000/svg">
<path d="M1.00007 18.2282C1 18.1429 1 18.0549 1 17.9641V5.28297C1 3.80337 1 3.06301 1.28795 2.49788C1.54124 2.00077 1.94511 1.5969 2.44221 1.34361C3.00735 1.05566 3.7477 1.05566 5.22731 1.05566H20.5504C22.03 1.05566 22.7694 1.05566 23.3345 1.34361C23.8316 1.5969 24.2362 2.00077 24.4895 2.49788C24.7772 3.06246 24.7772 3.80192 24.7772 5.27864V17.968C24.7772 18.6086 24.7772 19.1103 24.7537 19.5192M1.00007 18.2282C1.00108 19.5337 1.01766 20.2172 1.28795 20.7476C1.54124 21.2448 1.94511 21.65 2.44221 21.9033C3.0068 22.1909 3.74626 22.1909 5.22297 22.1909H20.5548C22.0316 22.1909 22.77 22.1909 23.3345 21.9033C23.8316 21.65 24.2362 21.2448 24.4895 20.7476C24.6524 20.428 24.723 20.0527 24.7537 19.5192M1.00007 18.2282L7.29828 10.8803L7.30014 10.8782C7.85875 10.2265 8.13852 9.90012 8.47035 9.78247C8.76185 9.67913 9.0801 9.68154 9.37013 9.78892C9.70064 9.91129 9.97596 10.2414 10.5266 10.9022L14.0551 15.1364C14.5648 15.748 14.8212 16.0557 15.1324 16.1791C15.4069 16.288 15.7097 16.3003 15.993 16.2167C16.3154 16.1215 16.5992 15.8377 17.1669 15.2701L17.8235 14.6135C18.4014 14.0356 18.6903 13.7468 19.0174 13.6525C19.3046 13.5696 19.6118 13.5874 19.8881 13.7015C20.2027 13.8314 20.4579 14.1495 20.9685 14.7877L24.7537 19.5192M24.7537 19.5192L24.7771 19.5485M16.8514 8.98139C16.1219 8.98139 15.5305 8.38998 15.5305 7.66043C15.5305 6.93089 16.1219 6.33948 16.8514 6.33948C17.581 6.33948 18.1724 6.93089 18.1724 7.66043C18.1724 8.38998 17.581 8.98139 16.8514 8.98139Z" stroke="#12467B" stroke-width="1.44104" stroke-linecap="round" stroke-linejoin="round"/>
</svg>
