<svg width="20" height="21" viewBox="0 0 20 21" fill="none" xmlns="http://www.w3.org/2000/svg">
<path fill-rule="evenodd" clip-rule="evenodd" d="M10.3255 0.236701C10.4852 0.0916081 10.6964 0.0155542 10.9126 0.0253101C15.4834 0.163813 19.3035 3.52252 19.9958 8.01156C20.0002 8.03836 20.0002 8.0657 19.9958 8.0925C20.0107 8.3049 19.9398 8.51445 19.7987 8.67479C19.6577 8.83513 19.4581 8.93304 19.2442 8.94688L11.5647 9.45951C11.3107 9.48231 11.0588 9.39772 10.8709 9.22652C10.6831 9.05533 10.5765 8.81339 10.5776 8.56016L10.0614 0.924662V0.798753C10.0708 0.584008 10.1658 0.381793 10.3255 0.236701ZM9.79877 11.4561L16.4549 11.0244L16.5002 11.0424C16.786 11.0471 17.0583 11.1644 17.257 11.3685C17.4557 11.5726 17.5646 11.8467 17.5598 12.1306C17.2975 15.9994 14.4953 19.2319 10.6819 20.0647C6.8685 20.8975 2.9593 19.1306 1.0869 15.728C0.53634 14.748 0.188425 13.6686 0.0635766 12.5533C0.015154 12.2228 -0.00604698 11.8889 0.000184607 11.555C0.012805 7.44108 2.9064 3.8902 6.95519 3.02013C7.44532 2.92727 7.93674 3.17498 8.15058 3.6227C8.20381 3.70394 8.24642 3.79158 8.27736 3.88351C8.35327 5.06945 8.432 6.24417 8.51039 7.41392C8.5723 8.33767 8.634 9.25832 8.69394 10.179C8.69085 10.3959 8.72452 10.6117 8.79356 10.8175C8.95607 11.2224 9.36048 11.4793 9.79877 11.4561Z" fill="#D5D5E1"/>
</svg>
