<svg width="20" height="21" viewBox="0 0 20 21" fill="none" xmlns="http://www.w3.org/2000/svg">
<path d="M7.13487 19.0273V15.9322C7.13487 15.1421 7.77226 14.5016 8.55853 14.5016H11.4327C11.8103 14.5016 12.1724 14.6523 12.4394 14.9206C12.7064 15.1889 12.8564 15.5528 12.8564 15.9322V19.0273C12.854 19.3558 12.9822 19.6716 13.2125 19.9047C13.4428 20.1378 13.7561 20.2689 14.083 20.2689H16.0439C16.9597 20.2713 17.8388 19.9074 18.4873 19.2575C19.1357 18.6077 19.5001 17.7252 19.5001 16.8049V7.9875C19.5001 7.24412 19.1722 6.53899 18.6047 6.06205L11.9341 0.708606C10.7738 -0.230037 9.1112 -0.19973 7.98548 0.780585L1.4671 6.06205C0.872832 6.52493 0.517644 7.23215 0.500092 7.9875V16.7959C0.500092 18.714 2.04747 20.2689 3.95626 20.2689H5.87238C6.55132 20.269 7.10309 19.7185 7.10801 19.0363L7.13487 19.0273Z" fill="#0084FB"/>
</svg>
