<svg width="17" height="22" viewBox="0 0 17 22" fill="none" xmlns="http://www.w3.org/2000/svg">
<path d="M2.99527 3.49475C5.54218 0.168417 9.67227 0.168417 12.2192 3.49475M9.21086 10.8268V6.12385C9.21086 5.25777 8.5192 4.55621 7.66535 4.55621C6.81149 4.55621 6.11983 5.25777 6.11983 6.12385V15.1699L3.35109 13.7286C2.72116 13.4006 1.95416 13.5227 1.45399 14.03C0.791622 14.7018 0.823014 15.8004 1.522 16.4329L5.71386 20.2248C6.26542 20.7237 6.98264 21 7.72638 21H12.1894C13.7093 21 14.9891 19.8633 15.1685 18.354L15.6187 14.5653C15.8158 12.9066 14.6201 11.4063 12.9592 11.2284L9.21086 10.8268Z" stroke="#12467B" stroke-width="1.5" stroke-linecap="round" stroke-linejoin="round"/>
</svg>
