<svg width="24" height="24" viewBox="0 0 24 24" fill="none" xmlns="http://www.w3.org/2000/svg">
<path d="M11.4004 8.00274C11.3975 7.66723 11.6696 7.4 11.9991 7.4C12.3332 7.4 12.596 7.66938 12.6003 7.99446L12.6004 7.99997C12.6004 8.33141 12.3318 8.59995 12.0004 8.59995C11.6699 8.59995 11.4019 8.3329 11.4004 8.00274ZM11.4004 8.00274L11.4004 8.00548M11.4004 8.00274L11.4004 7.99997M11.4004 12.0027C11.3975 11.6672 11.6696 11.4 11.9991 11.4C12.3332 11.4 12.596 11.6694 12.6003 11.9945L12.6004 12C12.6004 12.3314 12.3318 12.5999 12.0004 12.5999C11.6699 12.5999 11.4019 12.3329 11.4004 12.0027ZM11.4004 12.0027L11.4004 12.0055M11.4004 12.0027L11.4004 12M11.4004 16.0027C11.3975 15.6672 11.6696 15.4 11.9991 15.4C12.3332 15.4 12.596 15.6694 12.6003 15.9945L12.6004 16C12.6004 16.3314 12.3318 16.5999 12.0004 16.5999C11.6699 16.5999 11.4019 16.3329 11.4004 16.0027ZM11.4004 16.0027L11.4004 16.0055M11.4004 16.0027L11.4004 16M12 20.5C7.30558 20.5 3.5 16.6944 3.5 12C3.5 7.30558 7.30558 3.5 12 3.5C16.6944 3.5 20.5 7.30558 20.5 12C20.5 16.6944 16.6944 20.5 12 20.5Z" stroke="#2A2A2A" stroke-width="1.5" stroke-linecap="round" stroke-linejoin="round"/>
</svg>
