<svg width="20" height="20" viewBox="0 0 20 20" fill="none" xmlns="http://www.w3.org/2000/svg">
<path d="M13.677 7.19732C13.677 6.64533 13.229 6.2 12.677 6.2C12.125 6.20266 11.677 6.65066 11.677 7.20266C11.677 7.75465 12.125 8.20265 12.677 8.19999C13.229 8.19999 13.677 7.75199 13.677 7.19999M10.4758 12.785L9.44581 13.817H7.61381V15.286H6.14881V17.122L4.77481 18.5H1.47681V15.195L7.19981 9.45899C6.39381 7.36499 6.82581 4.90299 8.51081 3.21399C10.7908 0.928994 14.4878 0.928994 16.7678 3.21399C19.0478 5.49899 19.0478 9.20399 16.7678 11.49C15.0658 13.194 12.5778 13.624 10.4758 12.785Z" stroke="#0E355D" stroke-width="1.5" stroke-linecap="round" stroke-linejoin="round"/>
</svg>
