<svg width="71" height="71" viewBox="0 0 71 71" fill="none" xmlns="http://www.w3.org/2000/svg">
<path d="M60.5014 10.3088C53.8651 3.65103 45.0167 0 35.6314 0C26.2246 0 17.3762 3.65103 10.74 10.3088C4.08219 16.9451 0.431152 25.7935 0.431152 35.2003C0.431152 44.6071 4.08219 53.434 10.74 60.0917C17.3762 66.728 26.2246 70.4005 35.6314 70.4005C45.0382 70.4005 53.8651 66.7495 60.5229 60.0917C67.1592 53.4554 70.8317 44.6071 70.8317 35.2003C70.8102 25.7935 67.1592 16.9451 60.5014 10.3088Z" fill="#0F3B67"/>
<path d="M30.7938 40.2949L23.8783 33.3794C22.5467 32.0478 20.3561 32.0478 19.0245 33.3794C17.693 34.7109 17.693 36.9016 19.0245 38.2331L28.3669 47.5755C29.6985 48.907 31.8891 48.907 33.2206 47.5755L52.657 28.1391C53.9886 26.8075 53.9886 24.6169 52.657 23.2853C51.3255 21.9538 49.1348 21.9538 47.8033 23.2853L30.7938 40.2949Z" fill="white"/>
</svg>
