<svg width="28" height="22" viewBox="0 0 28 22" fill="none" xmlns="http://www.w3.org/2000/svg">
<path d="M17.9392 10.8608H22.4147C24.6711 10.8608 26.5002 12.6899 26.5002 14.9463C26.5002 16.0745 25.5856 16.9891 24.4574 16.9891H22.89M14.9431 5.86887C14.9431 8.22631 13.0282 10.1374 10.666 10.1374C8.30375 10.1374 6.3888 8.22631 6.3888 5.86887C6.3888 3.51143 8.30375 1.60034 10.666 1.60034C13.0282 1.60034 14.9431 3.51143 14.9431 5.86887ZM10.6653 13.1863C9.37076 13.1863 7.82642 13.1863 6.37777 13.1863C3.68355 13.1863 1.5 15.3704 1.5 18.0646C1.5 19.4118 2.59205 20.5038 3.93916 20.5038H17.3915C18.7386 20.5038 19.8306 19.4118 19.8306 18.0646C19.8306 15.3704 17.6471 13.1863 14.9529 13.1863C13.5042 13.1863 11.9599 13.1863 10.6653 13.1863ZM23.2417 5.09566C23.2417 6.66729 21.9651 7.94134 20.3902 7.94134C18.8154 7.94134 17.5388 6.66729 17.5388 5.09566C17.5388 3.52403 18.8154 2.24998 20.3902 2.24998C21.9651 2.24998 23.2417 3.52403 23.2417 5.09566Z" stroke="#FFC738" stroke-width="1.88" stroke-linecap="round"/>
</svg>
