<svg width="24" height="25" viewBox="0 0 24 25" fill="none" xmlns="http://www.w3.org/2000/svg">
<path d="M12.0993 7.22946C13.4414 7.21124 14.7899 7.70847 15.8143 8.73289C16.8387 9.7573 17.3359 11.1059 17.3177 12.4479M12.0993 1.98767C14.7756 1.98767 17.4531 3.00948 19.4954 5.0518C21.5377 7.09411 22.5597 9.77164 22.5597 12.4479M10.4395 13.8005C8.87531 12.2362 7.69611 10.4848 6.91266 8.70799C6.74687 8.3323 6.84447 7.89245 7.13459 7.60233L8.22956 6.5087C9.12666 5.6116 9.12665 4.34283 8.3432 3.55937L6.77361 1.98979C5.72945 0.945625 4.03687 0.945625 2.9927 1.98979L2.12101 2.86148C1.13032 3.85217 0.717205 5.28137 0.984596 6.69854C1.64505 10.192 3.67455 14.017 6.94875 17.2912C10.223 20.5654 14.048 22.5949 17.5415 23.2554C18.9586 23.5228 20.3878 23.1097 21.3785 22.119L22.2489 21.2486C23.293 20.2045 23.293 18.5119 22.2489 17.4677L20.6806 15.8995C19.8972 15.116 18.6271 15.116 17.8449 15.8995L16.6377 17.1081C16.3476 17.3982 15.9077 17.4958 15.532 17.33C13.7552 16.5452 12.0038 15.3647 10.4395 13.8005Z" stroke="#12467B" stroke-width="1.5" stroke-linecap="round" stroke-linejoin="round"/>
</svg>
