<svg width="18" height="18" viewBox="0 0 18 18" fill="none" xmlns="http://www.w3.org/2000/svg">
<path d="M8.9768 8.20161C11.0387 8.20161 12.7101 6.53351 12.7101 4.47581C12.7101 2.4181 11.0387 0.75 8.9768 0.75C6.91493 0.75 5.24346 2.4181 5.24346 4.47581C5.24346 6.53351 6.91493 8.20161 8.9768 8.20161Z" stroke="#12467B" stroke-width="1.5"/>
<path d="M0.976807 14.8629C0.976807 12.6538 2.7672 10.8629 4.97634 10.8629C6.31352 10.8629 7.76959 10.8629 8.97681 10.8629C10.184 10.8629 11.6401 10.8629 12.9773 10.8629C15.1864 10.8629 16.9768 12.6538 16.9768 14.8629V15.25C16.9768 16.3546 16.0814 17.25 14.9768 17.25H2.97681C1.87224 17.25 0.976807 16.3546 0.976807 15.25V14.8629Z" stroke="#12467B" stroke-width="1.5"/>
</svg>
