<svg width="26" height="26" viewBox="0 0 26 26" fill="none" xmlns="http://www.w3.org/2000/svg">
<path d="M3.25 3.25H11.9167V11.9167H3.25V3.25ZM4.98333 4.98333V10.1833H10.1833V4.98333H4.98333Z" fill="white"/>
<path fill-rule="evenodd" clip-rule="evenodd" d="M6.5 6.5H8.66667V8.66667H6.5V6.5Z" fill="white"/>
<path d="M14.0834 3.25H22.75V11.9167H14.0834V3.25ZM15.8167 4.98333V10.1833H21.0167V4.98333H15.8167Z" fill="white"/>
<path fill-rule="evenodd" clip-rule="evenodd" d="M17.3334 6.5H19.5V8.66667H17.3334V6.5Z" fill="white"/>
<path d="M3.25 14.0834H11.9167V22.75H3.25V14.0834ZM4.98333 15.8167V21.0167H10.1833V15.8167H4.98333Z" fill="white"/>
<path fill-rule="evenodd" clip-rule="evenodd" d="M6.5 17.3334H8.66667V19.5H6.5V17.3334Z" fill="white"/>
<path d="M22.75 19.2834H19.2834V22.75H14.0834V14.0834H14.95H14.0834V19.2834H15.8167V21.0167H17.55V15.8167H15.8167V14.0834H14.95H17.55V15.8167H19.2834V17.55H21.0167V14.0834H22.75V19.2834ZM22.75 21.0167V22.75H21.0167V21.0167H22.75Z" fill="white"/>
</svg>
