<svg width="20" height="20" viewBox="0 0 20 20" fill="none" xmlns="http://www.w3.org/2000/svg">
<path d="M9.40041 6.00274C9.3975 5.66723 9.6696 5.4 9.99906 5.4C10.3332 5.4 10.596 5.66938 10.6003 5.99446L10.6004 5.99997C10.6004 6.33141 10.3318 6.59995 10.0004 6.59995C9.66987 6.59995 9.4019 6.3329 9.40041 6.00274ZM9.40041 6.00274L9.40044 6.00548M9.40041 6.00274L9.40041 5.99997M9.40041 10.0027C9.3975 9.66723 9.6696 9.4 9.99906 9.4C10.3332 9.4 10.596 9.66938 10.6003 9.99446L10.6004 9.99997C10.6004 10.3314 10.3318 10.5999 10.0004 10.5999C9.66987 10.5999 9.4019 10.3329 9.40041 10.0027ZM9.40041 10.0027L9.40044 10.0055M9.40041 10.0027L9.40041 9.99997M9.40041 14.0027C9.3975 13.6672 9.6696 13.4 9.99906 13.4C10.3332 13.4 10.596 13.6694 10.6003 13.9945L10.6004 14C10.6004 14.3314 10.3318 14.5999 10.0004 14.5999C9.66987 14.5999 9.4019 14.3329 9.40041 14.0027ZM9.40041 14.0027L9.40044 14.0055M9.40041 14.0027L9.40041 14M10 18.5C5.30558 18.5 1.5 14.6944 1.5 10C1.5 5.30558 5.30558 1.5 10 1.5C14.6944 1.5 18.5 5.30558 18.5 10C18.5 14.6944 14.6944 18.5 10 18.5Z" stroke="#EEF2F8" stroke-width="1.5" stroke-linecap="round" stroke-linejoin="round"/>
</svg>
