<svg width="20" height="20" viewBox="0 0 20 20" fill="none" xmlns="http://www.w3.org/2000/svg">
<path d="M9.26277 1C8.49822 1 7.85601 1.57504 7.77188 2.33496L7.67859 3.17768C7.36881 3.28214 7.06789 3.40347 6.77859 3.54732L6.1151 3.01778C5.51823 2.5414 4.65874 2.5895 4.11874 3.12949L3.1063 4.14194C2.5663 4.68193 2.51821 5.54143 2.99458 6.1383L3.52413 6.80179C3.38027 7.09109 3.25895 7.392 3.15448 7.70179L2.31176 7.79508C1.55185 7.8792 0.976807 8.52141 0.976807 9.28597V10.714C0.976807 11.4786 1.55185 12.1208 2.31176 12.2049L3.15448 12.2982C3.25895 12.608 3.38027 12.9089 3.52413 13.1982L2.99459 13.8617C2.51821 14.4586 2.5663 15.3181 3.1063 15.8581L4.11874 16.8705C4.65874 17.4105 5.51823 17.4586 6.11511 16.9822L6.77859 16.4527C7.06789 16.5965 7.36881 16.7179 7.67859 16.8223L7.77188 17.665C7.85601 18.425 8.49822 19 9.26277 19H10.6908C11.4554 19 12.0976 18.425 12.1817 17.665L12.275 16.8223C12.5848 16.7179 12.8857 16.5965 13.175 16.4527L13.8385 16.9822C14.4354 17.4586 15.2949 17.4105 15.8349 16.8705L16.8473 15.8581C17.3873 15.3181 17.4354 14.4586 16.959 13.8617L16.4295 13.1982C16.5733 12.9089 16.6947 12.608 16.7991 12.2982L17.6418 12.2049C18.4018 12.1208 18.9768 11.4786 18.9768 10.714V9.28597C18.9768 8.52141 18.4018 7.8792 17.6418 7.79508L16.7991 7.70179C16.6947 7.392 16.5733 7.09109 16.4295 6.80179L16.959 6.1383C17.4354 5.54143 17.3873 4.68193 16.8473 4.14194L15.8349 3.12949C15.2949 2.5895 14.4354 2.5414 13.8385 3.01778L13.175 3.54732C12.8857 3.40347 12.5848 3.28214 12.275 3.17768L12.1817 2.33496C12.0976 1.57504 11.4554 1 10.6908 1H9.26277Z" stroke="#12467B" stroke-width="1.5" stroke-linejoin="round"/>
<path d="M9.97681 7C11.6337 7 12.9768 8.34313 12.9768 10C12.9768 11.6568 11.6337 13 9.97681 13C8.31995 13 6.97681 11.6568 6.97681 10C6.97681 8.34313 8.31995 7 9.97681 7Z" stroke="#12467B" stroke-width="1.5" stroke-linejoin="round"/>
</svg>
