<svg width="20" height="21" viewBox="0 0 20 21" fill="none" xmlns="http://www.w3.org/2000/svg">
<path fill-rule="evenodd" clip-rule="evenodd" d="M18.4023 11.7461C18.76 11.9384 19.0359 12.2421 19.2301 12.5457C19.6082 13.1733 19.5776 13.9426 19.2097 14.6208L18.4943 15.8355C18.1162 16.4833 17.411 16.8882 16.6854 16.8882C16.3278 16.8882 15.9292 16.787 15.6022 16.5845C15.3365 16.4124 15.0299 16.3517 14.7028 16.3517C13.6911 16.3517 12.8429 17.1918 12.8122 18.194C12.8122 19.358 11.872 20.269 10.6968 20.269H9.30691C8.12144 20.269 7.18124 19.358 7.18124 18.194C7.1608 17.1918 6.31257 16.3517 5.30084 16.3517C4.96359 16.3517 4.657 16.4124 4.40151 16.5845C4.07449 16.787 3.6657 16.8882 3.31824 16.8882C2.58243 16.8882 1.87728 16.4833 1.49916 15.8355L0.794005 14.6208C0.41588 13.9629 0.395441 13.1733 0.773565 12.5457C0.937079 12.2421 1.24367 11.9384 1.59113 11.7461C1.87728 11.6044 2.06123 11.3716 2.23496 11.0983C2.74594 10.2277 2.43936 9.08394 1.57069 8.5677C0.558954 7.99074 0.231928 6.70521 0.814444 5.70311L1.49916 4.50869C2.09189 3.50659 3.35912 3.15231 4.38107 3.7394C5.27018 4.22526 6.42499 3.90135 6.94619 3.04096C7.1097 2.75754 7.20168 2.45387 7.18124 2.15021C7.1608 1.75544 7.27321 1.38092 7.46739 1.07725C7.84551 0.44967 8.53022 0.0447806 9.27625 0.0245361H10.7172C11.4735 0.0245361 12.1582 0.44967 12.5363 1.07725C12.7202 1.38092 12.8429 1.75544 12.8122 2.15021C12.7918 2.45387 12.8838 2.75754 13.0473 3.04096C13.5685 3.90135 14.7233 4.22526 15.6226 3.7394C16.6343 3.15231 17.9118 3.50659 18.4943 4.50869L19.179 5.70311C19.7718 6.70521 19.4447 7.99074 18.4228 8.5677C17.5541 9.08394 17.2475 10.2277 17.7687 11.0983C17.9322 11.3716 18.1162 11.6044 18.4023 11.7461ZM7.10958 10.1569C7.10958 11.7461 8.40747 13.0114 10.0119 13.0114C11.6164 13.0114 12.8836 11.7461 12.8836 10.1569C12.8836 8.56773 11.6164 7.29233 10.0119 7.29233C8.40747 7.29233 7.10958 8.56773 7.10958 10.1569Z" fill="#D5D5E1"/>
</svg>
