<svg width="91" height="91" viewBox="0 0 91 91" fill="none" xmlns="http://www.w3.org/2000/svg">
<circle cx="45.343" cy="44.3858" r="36.6235" fill="#FFAE58"/>
<path fill-rule="evenodd" clip-rule="evenodd" d="M57.3159 33.2182C57.8757 32.6632 58.6314 32.3509 59.4197 32.3488C60.2079 32.3466 60.9653 32.6547 61.5282 33.2065C62.091 33.7584 62.4141 34.5095 62.4275 35.2976C62.4409 36.0857 62.1437 36.8475 61.5999 37.4182L45.6319 57.3782C45.3575 57.6737 45.0263 57.911 44.6581 58.0756C44.2899 58.2403 43.8922 58.329 43.4889 58.3365C43.0857 58.3439 42.685 58.27 42.311 58.1191C41.9369 57.9682 41.5971 57.7434 41.3119 57.4582L30.7319 46.8742C30.4372 46.5995 30.2008 46.2683 30.0368 45.9003C29.8728 45.5323 29.7847 45.1351 29.7776 44.7322C29.7705 44.3294 29.8446 43.9293 29.9954 43.5558C30.1463 43.1822 30.3709 42.8429 30.6558 42.558C30.9407 42.2731 31.28 42.0486 31.6535 41.8977C32.0271 41.7468 32.4272 41.6727 32.83 41.6798C33.2328 41.6869 33.6301 41.7751 33.9981 41.939C34.3661 42.103 34.6973 42.3394 34.9719 42.6342L43.3479 51.0062L57.2399 33.3062C57.2647 33.2752 57.2914 33.2458 57.3199 33.2182H57.3159Z" fill="white"/>
<circle cx="45.3429" cy="45.3429" r="45.3429" fill="#FFCA10" fill-opacity="0.37"/>
</svg>
