<svg width="20" height="21" viewBox="0 0 20 21" fill="none" xmlns="http://www.w3.org/2000/svg">
<mask id="mask0_1127_257" style="mask-type:luminance" maskUnits="userSpaceOnUse" x="0" y="6" width="20" height="15">
<path fill-rule="evenodd" clip-rule="evenodd" d="M0.000488281 6.79411H20.0001V20.5381H0.000488281V6.79411Z" fill="white"/>
</mask>
<g mask="url(#mask0_1127_257)">
<path fill-rule="evenodd" clip-rule="evenodd" d="M15.5655 20.5381H4.43549C1.99049 20.5381 0.000488281 18.5491 0.000488281 16.1031V11.2281C0.000488281 8.78311 1.99049 6.79411 4.43549 6.79411H5.36849C5.78249 6.79411 6.11849 7.13011 6.11849 7.54411C6.11849 7.95811 5.78249 8.29411 5.36849 8.29411H4.43549C2.81649 8.29411 1.50049 9.61011 1.50049 11.2281V16.1031C1.50049 17.7221 2.81649 19.0381 4.43549 19.0381H15.5655C17.1835 19.0381 18.5005 17.7221 18.5005 16.1031V11.2191C18.5005 9.60611 17.1885 8.29411 15.5765 8.29411H14.6335C14.2195 8.29411 13.8835 7.95811 13.8835 7.54411C13.8835 7.13011 14.2195 6.79411 14.6335 6.79411H15.5765C18.0155 6.79411 20.0005 8.77911 20.0005 11.2191V16.1031C20.0005 18.5491 18.0105 20.5381 15.5655 20.5381Z" fill="white"/>
</g>
<mask id="mask1_1127_257" style="mask-type:luminance" maskUnits="userSpaceOnUse" x="9" y="0" width="2" height="14">
<path fill-rule="evenodd" clip-rule="evenodd" d="M9.25 0.000106812H10.75V13.541H9.25V0.000106812Z" fill="white"/>
</mask>
<g mask="url(#mask1_1127_257)">
<path fill-rule="evenodd" clip-rule="evenodd" d="M10 13.541C9.586 13.541 9.25 13.205 9.25 12.791V0.75C9.25 0.336 9.586 0 10 0C10.414 0 10.75 0.336 10.75 0.75V12.791C10.75 13.205 10.414 13.541 10 13.541Z" fill="white"/>
</g>
<path fill-rule="evenodd" clip-rule="evenodd" d="M7.0852 4.42871C6.8942 4.42871 6.7022 4.35571 6.5562 4.20971C6.2632 3.91771 6.2612 3.44371 6.5542 3.14971L9.4692 0.22171C9.7502 -0.0612895 10.2502 -0.0612895 10.5312 0.22171L13.4472 3.14971C13.7392 3.44371 13.7382 3.91771 13.4452 4.20971C13.1512 4.50171 12.6772 4.50171 12.3852 4.20771L10.0002 1.81371L7.6162 4.20771C7.4702 4.35571 7.2772 4.42871 7.0852 4.42871Z" fill="white"/>
</svg>
