<svg width="23" height="23" viewBox="0 0 23 23" fill="none" xmlns="http://www.w3.org/2000/svg">
<path d="M22.4711 7.98807L20.4711 5.98816C20.3098 5.82898 20.0946 5.73603 19.8681 5.72764C19.6416 5.71925 19.4202 5.79603 19.2475 5.94284C18.9809 6.16976 18.6388 6.28825 18.289 6.27482C17.9391 6.26139 17.6071 6.11702 17.3586 5.87033C17.1121 5.62193 16.9678 5.28998 16.9544 4.94024C16.9409 4.5905 17.0593 4.24847 17.2861 3.98189C17.4329 3.8092 17.5097 3.58778 17.5013 3.36128C17.4929 3.13478 17.4 2.91964 17.2408 2.75828L15.2391 0.756097C15.0699 0.587258 14.8407 0.492432 14.6017 0.492432C14.3627 0.492432 14.1334 0.587258 13.9643 0.756097L10.7761 3.94382C10.5792 4.14137 10.4308 4.38179 10.3424 4.64627C10.3252 4.69711 10.2965 4.74331 10.2585 4.78127C10.2205 4.81923 10.1743 4.84794 10.1235 4.86516C9.85891 4.95358 9.61845 5.10219 9.42105 5.29931L1.24553 13.4748C1.07669 13.644 0.981869 13.8732 0.981869 14.1122C0.981869 14.3512 1.07669 14.5805 1.24553 14.7496L3.24772 16.7496C3.40907 16.9087 3.62421 17.0017 3.85072 17.0101C4.07722 17.0185 4.29864 16.9417 4.47133 16.7949C4.7373 16.5661 5.07989 16.4463 5.43046 16.4595C5.78103 16.4726 6.11368 16.6178 6.36174 16.8659C6.60981 17.1139 6.75497 17.4466 6.76813 17.7971C6.78129 18.1477 6.66149 18.4903 6.43273 18.7563C6.28592 18.929 6.20914 19.1504 6.21753 19.3769C6.22592 19.6034 6.31887 19.8185 6.47805 19.9799L8.47797 21.9798C8.64713 22.1486 8.87637 22.2435 9.11538 22.2435C9.35438 22.2435 9.58362 22.1486 9.75278 21.9798L17.9283 13.8043C18.1253 13.607 18.2739 13.3667 18.3625 13.1023C18.3796 13.0513 18.4083 13.0049 18.4464 12.9669C18.4844 12.9288 18.5308 12.9001 18.5818 12.883C18.8461 12.7945 19.0864 12.6461 19.2838 12.4493L22.4715 9.26108C22.6397 9.09193 22.7341 8.86305 22.734 8.62448C22.734 8.38592 22.6394 8.1571 22.4711 7.98807ZM12.1216 6.64437C12.0543 6.71172 11.9743 6.76515 11.8863 6.8016C11.7984 6.83805 11.7041 6.85681 11.6088 6.85681C11.5136 6.85681 11.4193 6.83805 11.3313 6.8016C11.2433 6.76515 11.1634 6.71172 11.096 6.64437L10.5744 6.12275C10.4417 5.98608 10.3682 5.8027 10.3696 5.61223C10.371 5.42176 10.4474 5.23951 10.5821 5.10485C10.7168 4.9702 10.8991 4.89396 11.0896 4.89261C11.28 4.89126 11.4634 4.96491 11.6 5.09764L12.1216 5.61881C12.1889 5.68614 12.2424 5.76608 12.2788 5.85407C12.3153 5.94205 12.334 6.03635 12.334 6.13159C12.334 6.22682 12.3153 6.32113 12.2788 6.40911C12.2424 6.4971 12.1889 6.57704 12.1216 6.64437ZM14.1156 8.6384C13.9797 8.77428 13.7953 8.85061 13.6031 8.85061C13.4108 8.85061 13.2265 8.77428 13.0905 8.6384L12.592 8.13989C12.5247 8.07255 12.4713 7.99261 12.4348 7.90463C12.3984 7.81664 12.3796 7.72234 12.3796 7.62711C12.3796 7.53188 12.3984 7.43758 12.4348 7.3496C12.4713 7.26161 12.5247 7.18167 12.592 7.11433C12.728 6.97833 12.9125 6.90193 13.1048 6.90193C13.2 6.90193 13.2943 6.92068 13.3823 6.95713C13.4703 6.99357 13.5502 7.04699 13.6176 7.11433L14.1161 7.61284C14.1837 7.68016 14.2373 7.76017 14.2739 7.84826C14.3105 7.93635 14.3294 8.03081 14.3294 8.1262C14.3295 8.2216 14.3107 8.31607 14.2742 8.40419C14.2376 8.49232 14.1841 8.57237 14.1165 8.63976L14.1156 8.6384ZM16.1097 10.6324C16.0423 10.6998 15.9624 10.7532 15.8744 10.7897C15.7864 10.8261 15.6921 10.8449 15.5969 10.8449C15.5016 10.8449 15.4073 10.8261 15.3194 10.7897C15.2314 10.7532 15.1514 10.6998 15.0841 10.6324L14.5856 10.1339C14.4529 9.99725 14.3793 9.81387 14.3808 9.6234C14.3822 9.43293 14.4585 9.25068 14.5932 9.11602C14.728 8.98137 14.9103 8.90513 15.1007 8.90378C15.2912 8.90243 15.4745 8.97608 15.6111 9.10881L16.1097 9.60732C16.1774 9.67453 16.2313 9.75447 16.2681 9.84254C16.3049 9.93061 16.3239 10.0251 16.3241 10.1205C16.3243 10.216 16.3057 10.3105 16.2693 10.3988C16.2329 10.487 16.1794 10.5672 16.1119 10.6347L16.1097 10.6324ZM18.1232 12.6509C18.0558 12.7183 17.9759 12.7717 17.8879 12.8082C17.7999 12.8446 17.7056 12.8634 17.6104 12.8634C17.5152 12.8634 17.4209 12.8446 17.3329 12.8082C17.2449 12.7717 17.1649 12.7183 17.0976 12.6509L16.5792 12.1298C16.5104 12.0626 16.4557 11.9825 16.4181 11.894C16.3806 11.8055 16.3611 11.7105 16.3606 11.6144C16.3602 11.5183 16.3788 11.4231 16.4155 11.3342C16.4521 11.2454 16.5061 11.1648 16.5742 11.097C16.6423 11.0292 16.7233 10.9756 16.8123 10.9394C16.9013 10.9031 16.9966 10.8849 17.0927 10.8859C17.1888 10.8868 17.2837 10.9068 17.372 10.9448C17.4603 10.9827 17.5402 11.0378 17.607 11.1069L18.1259 11.6276C18.1932 11.695 18.2466 11.775 18.283 11.863C18.3194 11.951 18.3381 12.0453 18.3381 12.1405C18.3381 12.2357 18.3193 12.33 18.2828 12.418C18.2463 12.506 18.1928 12.5859 18.1254 12.6532L18.1232 12.6509Z" fill="#0E355D"/>
</svg>
