<svg width="22" height="22" viewBox="0 0 22 22" fill="none" xmlns="http://www.w3.org/2000/svg">
<path d="M1.25 3.41663C1.25 4.26396 1.25 12.3249 1.25 16.9628C1.25 18.7577 2.70507 20.2083 4.5 20.2083L17.5 20.2083C19.2949 20.2083 20.75 18.7536 20.75 16.9587C20.75 15.1056 20.75 13.0658 20.75 12.625C20.75 12.0158 20.75 10.0626 20.75 8.29118C20.75 6.49625 19.2949 5.04163 17.5 5.04163L2.875 5.04163C1.978 5.04163 1.25 4.31363 1.25 3.41663ZM1.25 3.41663C1.25 2.51963 1.978 1.79163 2.875 1.79163L16.4167 1.79163M15.3333 12.3554C15.332 12.2039 15.4549 12.0833 15.6036 12.0833C15.7544 12.0833 15.8731 12.2049 15.875 12.3516L15.875 12.3541C15.875 12.5037 15.7538 12.625 15.6042 12.625C15.455 12.625 15.334 12.5044 15.3333 12.3554ZM15.3333 12.3554L15.3334 12.3566M15.3333 12.3554L15.3333 12.3541" stroke="#FAF9F6" stroke-width="2" stroke-linecap="round" stroke-linejoin="round"/>
</svg>
