<svg width="20" height="15" viewBox="0 0 20 15" fill="none" xmlns="http://www.w3.org/2000/svg">
<path d="M19.8291 4.31384C14.4763 -0.637094 6.15127 -0.635281 0.800622 4.31384C0.599406 4.49995 0.595479 4.81506 0.790048 5.00812L1.82453 6.03444C2.01003 6.21874 2.30853 6.22267 2.50129 6.04592C6.9099 2.00711 13.7192 2.0062 18.1287 6.04592C18.3215 6.22267 18.62 6.21844 18.8055 6.03444L19.84 5.00812C20.0342 4.81506 20.0303 4.49995 19.8291 4.31384ZM10.3149 10.2693C9.24684 10.2693 8.38125 11.1349 8.38125 12.2029C8.38125 13.271 9.24684 14.1365 10.3149 14.1365C11.3829 14.1365 12.2485 13.271 12.2485 12.2029C12.2485 11.1349 11.3829 10.2693 10.3149 10.2693ZM16.438 7.74387C12.9557 4.6643 7.67005 4.66763 4.19168 7.74387C3.98321 7.92816 3.97657 8.24811 4.17446 8.44329L5.21498 9.47021C5.39625 9.64907 5.68811 9.66116 5.88116 9.49438C8.41751 7.30186 12.2179 7.30669 14.7482 9.49438C14.9413 9.66116 15.2332 9.64937 15.4144 9.47021L16.455 8.44329C16.6531 8.24811 16.6462 7.92786 16.438 7.74387V7.74387Z" fill="#0E355D"/>
</svg>
