<svg width="22" height="22" viewBox="0 0 22 22" fill="none" xmlns="http://www.w3.org/2000/svg">
<path d="M11.7777 13.7086V20.2086M11.7777 20.2086L9.66657 18.0417M11.7777 20.2086L13.8888 18.0417M3.33332 10.4591V13.7096C3.33332 14.9062 4.30337 15.8757 5.49999 15.8757H6.49999M17.0555 15.8746H18.0555C19.2521 15.8746 20.2222 14.9082 20.2222 13.7116V2.87463M3.58035 2.45014L1.45241 7.44199C0.843151 8.87123 1.89186 10.4583 3.44554 10.4583H14.908C16.2103 10.4583 17.3869 9.68081 17.8976 8.48275L20.1071 3.29978C20.4117 2.58516 19.8873 1.79163 19.1105 1.79163L4.57691 1.79163C4.14278 1.79163 3.75058 2.05079 3.58035 2.45014Z" stroke="#FAF9F6" stroke-width="2" stroke-linecap="round" stroke-linejoin="round"/>
</svg>
